<?xml version="1.0" encoding="utf-8"?>
<!-- Generator: Adobe Illustrator 12.0.0, SVG Export Plug-In . SVG Version: 6.00 Build 51448)  -->
<!DOCTYPE svg PUBLIC "-//W3C//DTD SVG 1.1//EN" "http://www.w3.org/Graphics/SVG/1.1/DTD/svg11.dtd" [
	<!ENTITY ns_svg "http://www.w3.org/2000/svg">
	<!ENTITY ns_xlink "http://www.w3.org/1999/xlink">
]>
<svg  version="1.1" id="Ebene_1" xmlns="&ns_svg;" xmlns:xlink="&ns_xlink;" width="167.272" height="69.977"
	 viewBox="0 0 167.272 69.977" overflow="visible" enable-background="new 0 0 167.272 69.977" xml:space="preserve">
<g>
	<g>
		<rect x="110.358" fill="#FFFFFF" width="56.906" height="56.907"/>
		<g>
			<g>
				<path fill="#76263C" d="M120.797,67.259c1.08,1.664,2.978,3.646,5.354,2.24c3.779-2.236,17.898-10.594,17.898-10.594
					s1.396-0.592,2.91-1.999h-26.051c-0.652,0.385-1.213,0.717-1.639,0.969c-2.42,1.435-1.521,4.119-0.563,5.867L120.797,67.259
					L120.797,67.259z"/>
				<path fill="none" d="M84.831,56.937"/>
			</g>
			<g>
				<path fill="#76263C" d="M153.667,48.534l5.396-3.239c0,0,0.067,0.336,0.724-0.032c0.653-0.368,1.021-0.649,1.021-0.649
					s0.508-0.244,0.488-0.711l0.602-0.371c0,0,1.125-0.407-0.354-2.879c-1.477-2.459-2.373-1.674-2.373-1.674l-0.609,0.354
					c-0.418-0.159-0.855,0.097-0.855,0.097s-0.41,0.235-1.041,0.638c-0.633,0.404-0.383,0.578-0.383,0.578l-5.396,3.23l-1.563,0.831
					c-1.152,0.602-1.508,0.838-2.467,0.746c-5.582-1.432-9.674,1.828-9.674,1.828s-11.119,6.582-16.264,9.624h-10.555V0h56.908
					v56.907h-20.307c1.302-1.21,2.687-3.019,3.349-5.599c0.381-0.887,0.761-1.082,1.843-1.805L153.667,48.534L153.667,48.534z"/>
				<path fill="none" d="M84.831,56.937"/>
			</g>
		</g>
	</g>
</g>
<g id="Paradeis">
	<g>
		<path d="M2.603,55.58c0,0.972,0.528,0.996,1.14,0.996h0.192v0.36c-0.612,0-1.212-0.049-1.824-0.049
			c-0.66,0-1.308,0.049-1.992,0.049v-0.36h0.192c0.36,0,0.756-0.012,0.756-0.972v-5.736c0-0.804-0.228-0.948-0.804-0.948H0.119
			v-0.36c0.432,0,1.068,0.048,1.68,0.048c0.624,0,1.212-0.048,1.752-0.048c1.632,0,2.82,0.54,2.82,2.292
			c0,1.404-0.996,2.304-2.316,2.436c-0.372,0.024-0.684,0.024-0.96,0.024v-0.36h0.252c0.972,0,1.416-0.864,1.416-2.052
			c0-1.152-0.576-1.908-1.812-1.908H2.603V55.58z"/>
		<path d="M12.299,55.22c-0.12,0.408-0.264,0.721-0.264,0.937c0,0.36,0.504,0.42,0.9,0.42h0.132v0.36
			c-0.48-0.024-0.972-0.049-1.452-0.049c-0.432,0-0.864,0.022-1.296,0.049v-0.36h0.072c0.468,0,0.864-0.276,1.044-0.78l1.92-5.508
			c0.156-0.444,0.372-1.044,0.444-1.488c0.384-0.132,0.864-0.372,1.092-0.516c0.036-0.012,0.06-0.024,0.096-0.024
			c0.036,0,0.06,0,0.084,0.036c0.036,0.096,0.072,0.204,0.108,0.3l2.208,6.276c0.144,0.42,0.288,0.864,0.444,1.225
			c0.144,0.336,0.396,0.479,0.792,0.479h0.072v0.36c-0.54-0.024-1.08-0.049-1.656-0.049c-0.588,0-1.188,0.022-1.8,0.049v-0.36h0.132
			c0.276,0,0.744-0.048,0.744-0.348c0-0.156-0.108-0.48-0.24-0.864l-0.468-1.392h-2.724L12.299,55.22z M14.051,49.904h-0.024
			L12.911,53.3h2.244L14.051,49.904z"/>
		<path d="M23.843,49.832c0-0.876-0.48-0.912-0.852-0.912h-0.216v-0.36c0.384,0,1.128,0.048,1.86,0.048
			c0.72,0,1.296-0.048,1.932-0.048c1.512,0,2.856,0.408,2.856,2.112c0,1.08-0.72,1.74-1.668,2.112l2.052,3.072
			c0.336,0.504,0.576,0.648,1.164,0.72v0.36c-0.396,0-0.78-0.049-1.176-0.049c-0.372,0-0.756,0.049-1.128,0.049
			c-0.924-1.213-1.716-2.508-2.496-3.888h-0.792v2.568c0,0.924,0.432,0.96,0.984,0.96h0.216v0.36c-0.684,0-1.38-0.049-2.064-0.049
			c-0.576,0-1.14,0.049-1.74,0.049v-0.36h0.216c0.444,0,0.852-0.204,0.852-0.647C23.843,55.929,23.843,49.832,23.843,49.832z
			 M25.379,52.616h0.588c1.2,0,1.848-0.456,1.848-1.872c0-1.068-0.684-1.752-1.752-1.752c-0.36,0-0.516,0.036-0.684,0.048V52.616z"
			/>
		<path d="M36.947,55.22c-0.12,0.408-0.264,0.721-0.264,0.937c0,0.36,0.504,0.42,0.9,0.42h0.132v0.36
			c-0.48-0.024-0.972-0.049-1.452-0.049c-0.432,0-0.864,0.022-1.296,0.049v-0.36h0.072c0.468,0,0.864-0.276,1.044-0.78l1.92-5.508
			c0.156-0.444,0.372-1.044,0.444-1.488c0.384-0.132,0.864-0.372,1.092-0.516c0.036-0.012,0.06-0.024,0.096-0.024
			c0.036,0,0.06,0,0.084,0.036c0.036,0.096,0.072,0.204,0.108,0.3l2.208,6.276c0.144,0.42,0.287,0.864,0.443,1.225
			c0.145,0.336,0.396,0.479,0.792,0.479h0.071v0.36c-0.539-0.024-1.079-0.049-1.655-0.049c-0.588,0-1.188,0.022-1.8,0.049v-0.36
			h0.132c0.276,0,0.744-0.048,0.744-0.348c0-0.156-0.108-0.48-0.24-0.864l-0.468-1.392h-2.724L36.947,55.22z M38.699,49.904h-0.024
			L37.559,53.3h2.244L38.699,49.904z"/>
		<path d="M47.374,56.576h0.168c0.433,0,0.889-0.06,0.889-0.685v-6.287c0-0.624-0.456-0.684-0.889-0.684h-0.168v-0.36
			c0.36,0,1.152,0.048,1.92,0.048c0.769,0,1.416-0.048,1.933-0.048c2.952,0,4.765,1.656,4.765,4.164c0,2.4-2.017,4.356-4.453,4.212
			c-0.527-0.024-1.367-0.049-2.184-0.049s-1.668,0.049-1.98,0.049V56.576z M49.965,55.556c0,0.841,0.385,0.949,1.248,0.949
			c2.041,0,3.097-1.705,3.097-3.555c0-3.168-1.608-3.96-3.528-3.96c-0.275,0-0.552,0.036-0.816,0.06V55.556z"/>
		<path d="M60.372,56.576h0.168c0.432,0,0.888-0.06,0.888-0.685v-6.287c0-0.624-0.456-0.684-0.888-0.684h-0.168v-0.36
			c0.731,0,1.979,0.048,2.987,0.048c1.009,0,2.257-0.048,3.072-0.048c-0.024,0.516-0.013,1.308,0.024,1.836l-0.36,0.096
			c-0.06-0.78-0.204-1.404-1.464-1.404h-1.668v3.144h1.428c0.72,0,0.876-0.408,0.947-1.056H65.7
			c-0.025,0.468-0.037,0.936-0.037,1.404c0,0.456,0.012,0.912,0.037,1.368l-0.361,0.072c-0.071-0.72-0.107-1.188-0.936-1.188h-1.439
			v2.796c0,0.78,0.695,0.78,1.464,0.78c1.44,0,2.075-0.096,2.436-1.464l0.337,0.084c-0.156,0.636-0.301,1.271-0.408,1.908
			c-0.769,0-2.148-0.049-3.229-0.049s-2.508,0.049-3.191,0.049V56.576z"/>
		<path d="M71.303,56.576h0.168c0.432,0,0.888-0.06,0.888-0.685v-6.287c0-0.624-0.456-0.684-0.888-0.684h-0.168v-0.36
			c0.468,0,1.188,0.048,1.775,0.048c0.601,0,1.32-0.048,1.885-0.048v0.36h-0.168c-0.433,0-0.889,0.06-0.889,0.684v6.287
			c0,0.625,0.456,0.685,0.889,0.685h0.168v0.36c-0.576,0-1.297-0.049-1.896-0.049c-0.588,0-1.296,0.049-1.764,0.049V56.576z"/>
		<path d="M83.59,50.336c-0.084-0.78-0.588-1.524-1.416-1.524c-0.948,0-1.477,0.564-1.477,1.512c0,1.992,3.6,1.392,3.6,4.272
			c0,1.656-1.367,2.52-2.903,2.52c-0.672,0-1.319-0.24-1.908-0.54c-0.06-0.612-0.144-1.212-0.204-1.823l0.336-0.072
			c0.145,1.021,0.721,1.908,1.86,1.908c0.815,0,1.476-0.517,1.476-1.369c0-2.124-3.527-1.461-3.527-4.354
			c0-1.56,1.104-2.484,2.652-2.484c0.336,0,1.355,0.132,1.728,0.18c0,0.563,0.048,1.14,0.12,1.716L83.59,50.336z"/>
	</g>
</g>
<g id="Ebene_3">
	<g>
		<path d="M4.008,65.964l-0.952-2.207c-0.184-0.425-0.256-0.496-0.76-0.496v-0.209C2.672,63.06,3.04,63.07,3.408,63.07
			c0.272,0,0.568-0.019,0.832-0.019v0.209c-0.144,0-0.44,0.01-0.44,0.199c0,0.064,0.056,0.225,0.088,0.305l0.52,1.336l0.504-1.096
			c0.096-0.209,0.144-0.361,0.144-0.488c0-0.256-0.192-0.256-0.536-0.256v-0.209c0.296,0.008,0.624,0.019,0.92,0.019
			c0.216,0,0.472-0.019,0.696-0.019v0.209c-0.416,0-0.576,0.199-0.728,0.514l-0.816,1.711l0.96,2.216l1.336-3.655
			c0.136-0.358,0.144-0.465,0.144-0.521c0-0.146-0.08-0.256-0.6-0.265v-0.209c0.296,0.008,0.6,0.018,0.896,0.018
			c0.2,0,0.432-0.018,0.64-0.018v0.209c-0.376,0-0.464,0.225-0.592,0.553l-1.912,4.943H5.256l-1.08-2.416l-1.128,2.416H2.824
			L0.84,63.892C0.656,63.453,0.56,63.261,0,63.261v-0.209c0.352,0.008,0.744,0.018,1.096,0.018c0.304,0,0.64-0.018,0.944-0.018
			v0.209c-0.368,0-0.496,0.07-0.496,0.185c0,0.08,0,0.146,0.088,0.368L3.2,67.701L4.008,65.964z"/>
		<path d="M8.896,66.427c-0.016,0.072-0.016,0.192,0,0.465c0.048,0.762,0.536,1.386,1.176,1.386c0.44,0,0.784-0.24,1.08-0.536
			l0.112,0.109c-0.368,0.488-0.824,0.904-1.48,0.904c-1.272,0-1.528-1.229-1.528-1.744c0-1.565,1.056-2.029,1.616-2.029
			c0.648,0,1.344,0.406,1.352,1.256c0,0.048,0,0.096-0.008,0.146l-0.072,0.047H8.896V66.427z M10.312,66.173
			c0.2,0,0.224-0.104,0.224-0.201c0-0.405-0.248-0.733-0.696-0.733c-0.488,0-0.824,0.358-0.92,0.938h1.392V66.173z"/>
		<path d="M11.791,68.427h0.152c0.224,0,0.384,0,0.384-0.264v-2.168c0-0.352-0.12-0.4-0.416-0.561v-0.127
			c0.376-0.112,0.824-0.264,0.856-0.288c0.056-0.032,0.104-0.04,0.144-0.04s0.056,0.048,0.056,0.111v3.07
			c0,0.266,0.176,0.266,0.4,0.266h0.136v0.209c-0.272,0-0.552-0.019-0.84-0.019s-0.576,0.011-0.872,0.019V68.427z M12.647,63.747
			c-0.208,0-0.392-0.191-0.392-0.4c0-0.197,0.192-0.383,0.392-0.383c0.208,0,0.392,0.168,0.392,0.383
			C13.04,63.564,12.864,63.747,12.647,63.747z"/>
		<path d="M14.504,66.044c0-0.296-0.088-0.375-0.464-0.527v-0.151c0.344-0.11,0.672-0.216,1.056-0.384
			c0.024,0,0.048,0.016,0.048,0.078v0.521c0.456-0.325,0.848-0.6,1.384-0.6c0.68,0,0.92,0.493,0.92,1.118v2.063
			c0,0.265,0.176,0.265,0.4,0.265h0.144v0.209c-0.28,0-0.56-0.019-0.848-0.019s-0.576,0.011-0.864,0.019v-0.209h0.144
			c0.224,0,0.384,0,0.384-0.266v-2.07c0-0.455-0.28-0.682-0.736-0.682c-0.256,0-0.664,0.208-0.928,0.387v2.365
			c0,0.266,0.176,0.266,0.4,0.266h0.144v0.209c-0.28,0-0.56-0.019-0.848-0.019c-0.288,0-0.576,0.011-0.864,0.019v-0.209h0.144
			c0.224,0,0.384,0,0.384-0.266V66.044z"/>
		<path d="M19.12,66.427c-0.016,0.072-0.016,0.192,0,0.465c0.048,0.762,0.536,1.386,1.176,1.386c0.44,0,0.784-0.24,1.08-0.536
			l0.112,0.109c-0.368,0.488-0.824,0.904-1.48,0.904c-1.272,0-1.528-1.229-1.528-1.744c0-1.565,1.056-2.029,1.616-2.029
			c0.648,0,1.344,0.406,1.352,1.256c0,0.048,0,0.096-0.008,0.146l-0.072,0.047H19.12V66.427z M20.536,66.173
			c0.2,0,0.224-0.104,0.224-0.201c0-0.405-0.248-0.733-0.696-0.733c-0.488,0-0.824,0.358-0.92,0.938h1.392V66.173z"/>
		<path d="M26.248,66.948c-0.32-0.016-0.64-0.023-0.96-0.023c-0.328,0-0.648,0-0.968,0.023l0.072-0.527
			c0.32,0.018,0.64,0.023,0.968,0.023c0.32,0,0.64-0.008,0.96-0.023L26.248,66.948z"/>
		<path d="M29.839,63.94c0-0.721-0.376-0.672-0.736-0.68v-0.209c0.312,0.017,0.632,0.017,0.944,0.017
			c0.336,0,0.792-0.017,1.384-0.017c2.072,0,3.2,1.385,3.2,2.801c0,0.792-0.464,2.783-3.296,2.783c-0.408,0-0.784-0.018-1.16-0.018
			c-0.36,0-0.712,0.01-1.072,0.018v-0.207c0.48-0.049,0.712-0.064,0.736-0.608V63.94z M30.624,67.692
			c0,0.615,0.44,0.688,0.832,0.688c1.728,0,2.296-1.304,2.296-2.496c0-1.496-0.96-2.576-2.504-2.576
			c-0.328,0-0.48,0.024-0.624,0.033V67.692z"/>
		<path d="M36.008,66.427c-0.016,0.072-0.016,0.192,0,0.465c0.048,0.762,0.536,1.386,1.176,1.386c0.44,0,0.784-0.24,1.08-0.536
			l0.112,0.109c-0.368,0.488-0.824,0.904-1.48,0.904c-1.272,0-1.528-1.229-1.528-1.744c0-1.565,1.056-2.029,1.616-2.029
			c0.648,0,1.344,0.406,1.352,1.256c0,0.048,0,0.096-0.008,0.146l-0.072,0.047h-2.248V66.427z M37.424,66.173
			c0.2,0,0.224-0.104,0.224-0.201c0-0.405-0.248-0.733-0.696-0.733c-0.488,0-0.824,0.358-0.92,0.938h1.392V66.173z"/>
		<path d="M38.903,68.427h0.152c0.224,0,0.384,0,0.384-0.264v-4.456c0-0.52-0.12-0.536-0.424-0.624v-0.128
			c0.32-0.104,0.656-0.248,0.824-0.344c0.088-0.048,0.152-0.088,0.176-0.088c0.048,0,0.064,0.048,0.064,0.112v5.525
			c0,0.266,0.176,0.266,0.4,0.266h0.137v0.209c-0.272,0-0.553-0.019-0.841-0.019s-0.576,0.011-0.872,0.019V68.427z"/>
		<path d="M41.127,68.427h0.151c0.224,0,0.384,0,0.384-0.264v-2.168c0-0.352-0.119-0.4-0.416-0.561v-0.127
			c0.377-0.112,0.824-0.264,0.856-0.288c0.056-0.032,0.104-0.04,0.144-0.04c0.041,0,0.057,0.048,0.057,0.111v3.07
			c0,0.266,0.176,0.266,0.4,0.266h0.135v0.209c-0.271,0-0.551-0.019-0.84-0.019c-0.287,0-0.576,0.011-0.871,0.019V68.427z
			 M41.983,63.747c-0.208,0-0.393-0.191-0.393-0.4c0-0.197,0.193-0.383,0.393-0.383c0.208,0,0.393,0.168,0.393,0.383
			C42.375,63.564,42.2,63.747,41.983,63.747z"/>
		<path d="M47.112,65.308c-0.432,0-0.695,0.176-0.992,0.447l-0.888,0.801l1.353,1.496c0.319,0.352,0.375,0.375,0.744,0.392v0.192
			c-0.209-0.008-0.345-0.019-0.625-0.019c-0.176,0-0.359,0.011-0.535,0.019c-0.08-0.112-0.168-0.227-0.256-0.328l-1.272-1.44h-0.16
			v1.296c0,0.264,0.177,0.264,0.399,0.264h0.145v0.209c-0.279,0-0.561-0.019-0.848-0.019c-0.288,0-0.576,0.011-0.864,0.019v-0.209
			h0.144c0.225,0,0.385,0,0.385-0.266v-4.456c0-0.521-0.12-0.534-0.424-0.624v-0.126c0.319-0.104,0.656-0.248,0.824-0.344
			c0.088-0.048,0.151-0.088,0.176-0.088c0.047,0,0.063,0.048,0.063,0.112v4.047l0.256-0.047l0.864-0.763
			c0.128-0.11,0.313-0.304,0.313-0.405c0-0.16-0.265-0.16-0.393-0.16v-0.209c0.279,0.009,0.568,0.017,0.848,0.017
			c0.248,0,0.496-0.008,0.744-0.017V65.308z"/>
		<path d="M51.263,68.323c-0.224,0.208-0.472,0.432-0.792,0.432c-0.328,0-0.48-0.304-0.496-0.592
			c-0.376,0.344-0.736,0.592-1.232,0.592c-0.512,0-0.863-0.352-0.863-0.773c0.031-0.643,0.359-0.762,2.088-1.354v-0.529
			c0-0.445-0.264-0.688-0.776-0.688c-0.353,0-0.592,0.2-0.608,0.561c0,0.226-0.256,0.336-0.447,0.336
			c-0.12,0-0.145-0.104-0.145-0.158c0-0.426,0.36-0.624,0.92-0.912c0.28-0.146,0.416-0.256,0.721-0.256
			c0.359,0,0.976,0.23,0.976,0.672v2.216c0,0.328,0.112,0.456,0.288,0.456c0.104,0,0.225-0.048,0.296-0.136L51.263,68.323z
			 M49.967,66.86c-0.408,0.16-1.448,0.344-1.448,0.943c0,0.313,0.256,0.576,0.567,0.576c0.377,0,0.617-0.231,0.881-0.466V66.86z"/>
		<path d="M52.863,67.652c0,0.528,0.288,0.672,0.505,0.672c0.215,0,0.375-0.071,0.56-0.231l0.12,0.119
			c-0.28,0.288-0.633,0.545-1.064,0.545c-0.512,0-0.76-0.271-0.76-0.744v-2.479h-0.528v-0.129c0.416-0.32,0.664-0.473,1.072-1.12
			h0.096v0.815h1.192v0.433h-1.192V67.652z"/>
		<path d="M55.12,66.427c-0.016,0.072-0.016,0.192,0,0.465c0.049,0.762,0.537,1.386,1.176,1.386c0.44,0,0.785-0.24,1.08-0.536
			l0.112,0.109c-0.368,0.488-0.823,0.904-1.479,0.904c-1.272,0-1.528-1.229-1.528-1.744c0-1.565,1.056-2.029,1.616-2.029
			c0.648,0,1.344,0.406,1.352,1.256c0,0.048,0,0.096-0.008,0.146l-0.072,0.047H55.12V66.427z M56.536,66.173
			c0.2,0,0.225-0.104,0.225-0.201c0-0.405-0.248-0.733-0.696-0.733c-0.487,0-0.823,0.358-0.92,0.938h1.392V66.173z"/>
		<path d="M58.239,67.524c0.104,0.527,0.424,0.976,1.008,0.976c0.473,0,0.648-0.288,0.648-0.567c0-0.942-1.744-0.641-1.744-1.928
			c0-0.449,0.36-1.022,1.24-1.022c0.256,0,0.6,0.069,0.912,0.229l0.056,0.816h-0.185c-0.079-0.504-0.359-0.792-0.871-0.792
			c-0.32,0-0.624,0.185-0.624,0.528c0,0.936,1.856,0.646,1.856,1.904c0,0.525-0.425,1.088-1.377,1.088
			c-0.32,0-0.695-0.113-0.976-0.272l-0.088-0.92L58.239,67.524z"/>
		<path d="M61.351,67.524c0.104,0.527,0.424,0.976,1.008,0.976c0.472,0,0.647-0.288,0.647-0.567c0-0.942-1.743-0.641-1.743-1.928
			c0-0.449,0.36-1.022,1.239-1.022c0.256,0,0.601,0.069,0.912,0.229l0.057,0.816h-0.184c-0.08-0.504-0.36-0.792-0.873-0.792
			c-0.319,0-0.623,0.185-0.623,0.528c0,0.936,1.855,0.646,1.855,1.904c0,0.525-0.424,1.088-1.376,1.088
			c-0.319,0-0.696-0.113-0.976-0.272l-0.088-0.92L61.351,67.524z"/>
		<path d="M64.895,66.427c-0.016,0.072-0.016,0.192,0,0.465c0.048,0.762,0.536,1.386,1.176,1.386c0.44,0,0.784-0.24,1.08-0.536
			l0.112,0.109c-0.368,0.488-0.824,0.904-1.479,0.904c-1.272,0-1.529-1.229-1.529-1.744c0-1.565,1.057-2.029,1.617-2.029
			c0.647,0,1.344,0.406,1.352,1.256c0,0.048,0,0.096-0.008,0.146l-0.072,0.047h-2.248V66.427z M66.312,66.173
			c0.2,0,0.224-0.104,0.224-0.201c0-0.405-0.248-0.733-0.695-0.733c-0.488,0-0.824,0.358-0.92,0.938h1.392V66.173z"/>
		<path d="M68.279,66.044c0-0.296-0.088-0.375-0.464-0.527v-0.151c0.344-0.11,0.672-0.216,1.057-0.384
			c0.023,0,0.047,0.016,0.047,0.078v0.521c0.457-0.325,0.849-0.6,1.385-0.6c0.68,0,0.92,0.493,0.92,1.118v2.063
			c0,0.265,0.176,0.265,0.4,0.265h0.144v0.209c-0.28,0-0.56-0.019-0.849-0.019c-0.287,0-0.576,0.011-0.863,0.019v-0.209H70.2
			c0.223,0,0.383,0,0.383-0.266v-2.07c0-0.455-0.279-0.682-0.735-0.682c-0.257,0-0.664,0.208-0.929,0.387v2.365
			c0,0.266,0.177,0.266,0.4,0.266h0.145v0.209c-0.28,0-0.561-0.019-0.848-0.019c-0.289,0-0.576,0.011-0.865,0.019v-0.209h0.145
			c0.225,0,0.384,0,0.384-0.266V66.044z"/>
		<path d="M76.471,66.948c-0.32-0.016-0.641-0.023-0.96-0.023c-0.328,0-0.648,0-0.968,0.023l0.072-0.527
			c0.319,0.018,0.639,0.023,0.967,0.023c0.32,0,0.641-0.008,0.961-0.023L76.471,66.948z"/>
		<path d="M79.383,68.427c0.4,0.024,0.728-0.08,0.728-0.535v-4.057c0-0.56-0.304-0.568-0.728-0.576v-0.207
			c0.224,0,0.447,0.018,0.664,0.018h0.248c0.455,0,0.752-0.018,1.039-0.018c0.593,0,1.865,0.168,1.865,1.295
			c0,0.744-0.673,1.129-1.289,1.272v0.017c0.601-0.032,1.801,0.367,1.801,1.496c0,0.854-0.736,1.504-2.152,1.504
			c-0.376,0-0.752-0.019-1.128-0.019c-0.353,0-0.704,0.011-1.048,0.019V68.427z M80.895,65.579H81.2
			c0.647,0,1.215-0.208,1.215-1.216c0-0.92-0.543-1.056-1.184-1.056c-0.104,0-0.216,0.008-0.336,0.016V65.579z M80.895,67.724
			c0,0.357,0,0.656,0.721,0.656c0.951,0,1.264-0.648,1.264-1.146c0-1.146-0.713-1.4-1.504-1.4h-0.48V67.724z"/>
		<path d="M84.239,68.427h0.152c0.225,0,0.384,0,0.384-0.264v-2.168c0-0.352-0.12-0.4-0.416-0.561v-0.127
			c0.376-0.112,0.824-0.264,0.856-0.288c0.056-0.032,0.104-0.04,0.144-0.04s0.056,0.048,0.056,0.111v3.07
			c0,0.266,0.176,0.266,0.4,0.266h0.137v0.209c-0.272,0-0.553-0.019-0.841-0.019s-0.575,0.011-0.872,0.019V68.427z M85.095,63.747
			c-0.208,0-0.392-0.191-0.392-0.4c0-0.197,0.191-0.383,0.392-0.383c0.208,0,0.392,0.168,0.392,0.383
			C85.487,63.564,85.311,63.747,85.095,63.747z"/>
		<path d="M86.687,67.524c0.104,0.527,0.424,0.976,1.008,0.976c0.472,0,0.648-0.288,0.648-0.567c0-0.942-1.744-0.641-1.744-1.928
			c0-0.449,0.36-1.022,1.239-1.022c0.257,0,0.601,0.069,0.912,0.229l0.059,0.816h-0.186c-0.08-0.504-0.359-0.792-0.873-0.792
			c-0.319,0-0.623,0.185-0.623,0.528c0,0.936,1.855,0.646,1.855,1.904c0,0.525-0.424,1.088-1.376,1.088
			c-0.319,0-0.696-0.113-0.976-0.272l-0.088-0.92L86.687,67.524z"/>
		<path d="M90.64,67.652c0,0.528,0.287,0.672,0.504,0.672c0.215,0,0.375-0.071,0.56-0.231l0.121,0.119
			c-0.281,0.288-0.634,0.545-1.063,0.545c-0.513,0-0.761-0.271-0.761-0.744v-2.479h-0.526v-0.129c0.416-0.32,0.664-0.473,1.069-1.12
			h0.099v0.815h1.19v0.433h-1.19L90.64,67.652L90.64,67.652z"/>
		<path d="M92.174,68.427h0.218c0.224,0,0.383,0,0.383-0.264v-2.248c0-0.248-0.295-0.296-0.416-0.359v-0.121
			c0.584-0.245,0.904-0.453,0.978-0.453c0.047,0,0.072,0.021,0.072,0.104v0.723h0.016c0.199-0.313,0.535-0.824,1.023-0.824
			c0.2,0,0.456,0.136,0.456,0.424c0,0.216-0.151,0.408-0.377,0.408c-0.248,0-0.248-0.192-0.526-0.192
			c-0.138,0-0.584,0.185-0.584,0.664v1.88c0,0.264,0.16,0.264,0.383,0.264h0.449v0.205c-0.438-0.008-0.774-0.019-1.121-0.019
			c-0.328,0-0.664,0.011-0.95,0.019v-0.209H92.174L92.174,68.427z"/>
		<path d="M97.263,64.98c1.112,0,1.944,0.735,1.944,1.872c0,1.031-0.815,1.904-1.84,1.904c-1.063,0-1.938-0.736-1.938-1.873
			C95.431,65.851,96.19,64.98,97.263,64.98z M97.358,68.548c0.801,0,1.113-0.928,1.113-1.615c0-0.654-0.354-1.742-1.201-1.742
			c-0.791,0-1.104,0.928-1.104,1.613C96.167,67.46,96.519,68.548,97.358,68.548z"/>
	</g>
</g>
</svg>
